<svg width="2556" height="129" viewBox="0 0 2556 129" fill="none" xmlns="http://www.w3.org/2000/svg">
<path d="M0 128.204V44.204C80.3449 24.0391 123.885 10.5737 213.5 3.70397C274.116 -0.878665 306.337 -0.00434515 364.5 0.203971C477.738 6.33618 536 16.7074 644 45.204C786.524 82.8098 867.797 92.9535 1015.5 89.204C1127.68 83.6947 1185.31 73.2519 1278 44.204V128.204H0Z" fill="#6EB9E3"/>
<path d="M1278 128.204V44.204C1358.34 24.0391 1401.89 10.5737 1491.5 3.70397C1552.12 -0.878665 1584.34 -0.00434515 1642.5 0.203971C1755.74 6.33618 1814 16.7074 1922 45.204C2064.52 82.8098 2145.8 92.9535 2293.5 89.204C2405.68 83.6947 2463.31 73.2519 2556 44.204V128.204H1278Z" fill="#6EB9E3"/>
</svg>
