<svg width="428" height="926" viewBox="0 0 428 926" fill="none" xmlns="http://www.w3.org/2000/svg">
<rect width="428" height="926" fill="#1E1E1E"/>
<g clip-path="url(#clip0_0_1)">
<rect width="428" height="926" fill="#252423"/>
<path d="M308.283 289.685C316.081 300.65 315.312 315.538 306.427 325.642L10.0351 662.682C-8.11574 683.323 -42.1205 669.486 -40.7036 642.037L-4.42331 -60.7713C-3.00633 -88.2205 32.2425 -98.4823 48.1715 -76.0829L308.283 289.685Z" fill="#323230"/>
<ellipse cx="350" cy="762.5" rx="4" ry="3.5" fill="#D9D9D9"/>
<path d="M177.085 717.529C168.537 706.57 168.967 691.087 178.108 680.619L489.547 323.977C507.432 303.496 541.133 316.676 540.379 343.856L520.13 1073.86C519.377 1101.04 484.996 1112.33 468.274 1090.89L177.085 717.529Z" fill="#323230"/>
</g>
<defs>
<clipPath id="clip0_0_1">
<rect width="428" height="926" fill="white"/>
</clipPath>
</defs>
</svg>
